<?xml version="1.0" encoding="utf-8"?>
<!-- Generator: Adobe Illustrator 16.0.0, SVG Export Plug-In . SVG Version: 6.00 Build 0)  -->
<!DOCTYPE svg PUBLIC "-//W3C//DTD SVG 1.1//EN" "http://www.w3.org/Graphics/SVG/1.1/DTD/svg11.dtd">
<svg version="1.1" id="Layer_1" xmlns="http://www.w3.org/2000/svg" xmlns:xlink="http://www.w3.org/1999/xlink" x="0px" y="0px"
	 width="128px" height="128px" viewBox="0 0 128 128" enable-background="new 0 0 128 128" xml:space="preserve">
<g>
	<g>
		<g>
			<polygon fill="#282D33" points="63.997,122.661 22.464,98.48 22.464,65.476 26.465,65.476 26.465,96.181 63.997,118.03 
				101.535,96.18 101.535,65.476 105.537,65.476 105.537,98.481 			"/>
		</g>
		<g>
			<rect x="61.998" y="66.544" fill="#282D33" width="4.002" height="50.511"/>
		</g>
		<g>
			<g>
				<path fill="#282D33" d="M82.541,79.86L60.02,66.743l45.454-26.433L128,53.426L82.541,79.86z M67.975,66.745l14.568,8.484
					l37.501-21.806l-14.572-8.483L67.975,66.745z"/>
			</g>
			<g>
				<path fill="#282D33" d="M45.453,79.86L0,53.426l22.522-13.115l45.456,26.433L45.453,79.86z M7.956,53.424l37.496,21.806
					l14.571-8.484L22.524,44.94L7.956,53.424z"/>
			</g>
		</g>
		<g>
			<g>
				<path fill="#282D33" d="M22.522,44.89L0,31.775L45.453,5.339l22.526,13.113L22.522,44.89z M7.956,31.777l14.568,8.482
					l37.5-21.81L45.452,9.968L7.956,31.777z"/>
			</g>
			<g>
				<path fill="#282D33" d="M105.473,44.89L60.019,18.452L82.541,5.339L128,31.775L105.473,44.89z M67.975,18.45l37.498,21.81
					l14.571-8.482L82.543,9.968L67.975,18.45z"/>
			</g>
		</g>
	</g>
</g>
</svg>
